#!OML:ASF F:\VICON\USERDATA\INSTALL\rory3\rory3.ASF
:FULLY-SPECIFIED
:DEGREES
28
root -0.761702472406798 17.50003911312616 -0.8638435652878433 2.5785311764280068 10.624385998709872 -1.670507321289975
lfemur -35.079188040284436 -7.142797505829814 -19.84910247134112
ltibia 16.36316687912226
lfoot -23.68842917769085 1.3692886017344055
ltoes -24.580378921357436
rfemur 14.555878795140341 4.155947746711927 35.14820844916989
rtibia 43.03188627798333
rfoot 26.259326649824867 -15.569576923551693
rtoes 4.9397982189206875
lowerback 1.0 2.2897711337444546 5.060508968724973
upperback -2.2971280015372804 3.933177011171967 0.5726876846679627
thorax -10.249299153630105 1.4542776573000293 -2.0101620052486115
lowerneck -17.720565556927586 -6.381685458935727 -1.9790744931530617
upperneck 15.805794234879471 -9.324326652439083 2.4623704307028587
head 7.929618305064606 -4.105290918371953 0.1130124837373171
lclavicle -4.9643729001874846e-14 -2.476800175614314e-14
lhumerus -65.74147945970212 -10.19696154559118 98.12904358470507
lradius 114.87425420038413
lwrist 29.593423278009286
lhand -34.59335670619674 -0.20159066849363533
lfingers nan
lthumb -7.7899360380306035 29.610042782424024
rclavicle -5.1358378216412116e-14 -2.7116826803784812e-14
rhumerus -47.58034997525096 16.290243904056748 -105.80188965587409
rradius 137.6971166863495
rwrist -32.1578450382045
rhand -20.034206095815602 1.0
rfingers nan
rthumb 6.092839797706567 4.517853141553671
29
root -0.7453586547167232 17.484004967814084 0.6281566806158487 2.5803829408297903 10.763117626775848 -1.4301684685660252
lfemur -34.81645080404286 -7.603761201046509 -20.14327941138906
ltibia 13.332426178755227
lfoot -27.816425890113532 2.94661609761512
ltoes -37.722205313400195
rfemur 15.271870113216668 3.95527199734386 35.034345617869704
rtibia 40.21440783896416
rfoot 28.421029274756382 -14.912796648483862
rtoes 0.36751160674960204
lowerback 1.0 2.4112997362600828 5.5161230501124985
upperback -2.1369045645958895 4.163920737665034 0.3062956408467774
thorax -9.763346131560466 1.510775661970387 -2.2713111905423404
lowerneck -19.416763007635634 -6.557307827939422 -1.6982447952299546
upperneck 16.385471520667128 -9.420864781480315 2.2485578484674607
head 8.367401360060542 -4.1833975505990075 -0.04910528031635275
lclavicle -2.6276745317616777e-14 -3.3368010242150756e-14
lhumerus -65.40572633674563 -10.736706651939466 98.12862275017147
lradius 115.64137072994787
lwrist 29.13169024413215
lhand -35.12845519306396 -1.494080831545622
lfingers nan
lthumb -8.282882723839226 28.27200372553408
rclavicle -2.8809521771000284e-14 -3.6005173433535765e-14
rhumerus -47.706387048181405 15.85805015476275 -105.86248015099706
rradius 138.69595879263562
rwrist -30.707761784090167
rhand -18.914278195587812 1.0
rfingers nan
rthumb 7.134175292990055 7.021232741005882
30
root -0.696127618078031 17.51934772370836 1.4423301526097259 3.393504602205975 8.612626429740535 -1.4938051360137858
lfemur -34.502651169749555 -6.745179002610068 -20.594582633789113
ltibia 9.729187618437301
lfoot -28.001002387771315 4.033128276529762
ltoes -37.20426159946884
rfemur 15.649514789854646 5.010999591465291 34.503651564298735
rtibia 37.35688857217926
rfoot 30.993238742959008 -12.73056931799836
rtoes -2.0629889658290366
lowerback 1.0 2.6602019386864013 5.391409102715336
upperback -1.6721314601452424 4.66088620964493 0.13720425327670016
thorax -6.658130143892152 1.5996578466779199 -2.235587401126632
lowerneck -20.775239557863966 -6.740139092892458 -1.6810275530292824
upperneck 16.522219512553526 -9.409221260764541 2.2052659523608575
head 8.624560606134981 -4.218936030160546 -0.1095866672670961
lclavicle -4.5993954869657266e-14 -6.462813858905424e-16
lhumerus -64.73880889626405 -10.826259316581064 98.07410551964223
lradius 116.15284316527304
lwrist 28.204651487566373
lhand -35.80256085968873 -3.304480950404474
lfingers nan
lthumb -8.961217959864225 26.417468205850376
rclavicle -4.847586233727893e-14 -4.001991395771609e-15
rhumerus -47.560521439440166 15.793530291265803 -105.49637225600853
rradius 139.2285657324822
rwrist -28.351038351963417
rhand -19.099396005746048 1.0
rfingers nan
rthumb 6.9517753421144555 9.990589505952439
31
root -0.6688439326323874 17.552649581862354 1.0450088136614184 3.3022139723006054 9.571661915316458 -1.278414232738506
lfemur -34.268448028100565 -7.6766226354604745 -20.90474428122686
ltibia 5.919548231075716
lfoot -30.2242857105585 5.4951492070632675
ltoes -43.7930980216119
rfemur 15.900534208430567 4.281111015549239 34.15577515515221
rtibia 34.601319500066346
rfoot 33.83555581995322 -10.840309991032589
rtoes -3.4348268582309394
lowerback 1.0 2.487160337154333 5.467085895931504
upperback -1.358731721102232 4.527250257253357 0.1290826515345469
thorax -5.488846517979832 1.4868428632350923 -2.163259766744702
lowerneck -21.206213192226546 -6.766674221529932 -1.7212604065813806
upperneck 16.284991153276287 -9.23498142128075 2.104951842890042
head 8.57328920004068 -4.13974051975409 -0.10219823307472076
lclavicle -2.121842100214658e-14 1.1500898568693887e-14
lhumerus -64.37444451530227 -10.345844811823259 97.97344133804309
lradius 116.47930557254058
lwrist 26.745583537656067
lhand -35.76578667440165 -5.18732707167511
lfingers nan
lthumb -8.999741850893546 24.518819600836828
rclavicle -2.2920275469380745e-14 8.503242790801293e-15
rhumerus -47.4892591852199 15.945492319675141 -105.20160260401471
rradius 139.48146399680218
rwrist -24.86781553980891
rhand -18.61217132340867 1.0
rfingers nan
rthumb 7.427981408987516 10.398784505651422
32
root -0.6540826607001111 17.573687681501656 2.180369868170388 3.147662885337063 10.572253610559965 -1.0755979164165907
lfemur -33.547362795506785 -8.579184377052856 -21.141397086705652
ltibia 1.9424826538987148
lfoot -28.33036677446243 4.716708372070267
ltoes -35.07955514896856
rfemur 16.110776893432874 3.377520399555752 33.76247847470091
rtibia 31.873457767372663
rfoot 36.800737528201616 -9.348096042803347
rtoes -4.9288243458573895
lowerback 1.0 2.254659748798848 5.6536834586108125
upperback -1.0726114823365622 4.301826260462743 0.01544476847133991
thorax -4.621278876005945 1.3134710836710355 -1.8906701803809969
lowerneck -21.102161767379524 -6.7350661571418105 -1.7311924761536779
upperneck 16.038649344866382 -9.09390478855314 2.0219255257599893
head 8.444370504235595 -4.063229117004923 -0.10607590476435491
lclavicle -4.8068466227721654e-14 -2.5920124627893952e-14
lhumerus -64.16387718205283 -9.94771092406187 97.69274419952752
lradius 116.9257196327688
lwrist 26.29541562589669
lhand -34.55323321226868 -4.786313308121831
lfingers nan
lthumb -7.84948384766764 24.98665873712095
rclavicle -4.968286848699458e-14 -2.962759436311077e-14
rhumerus -47.56328898126745 16.056306728873604 -105.2342116776366
rradius 139.53419687026786
rwrist -19.693223051116377
rhand -18.15681847690271 1.0
rfingers nan
rthumb 7.867175963886984 9.98717415463015
33
root -0.6376467606717309 17.57987260275635 3.714969345425622 3.114574183097295 11.06234906250047 -0.6971606796800676
lfemur -32.75548137574616 -9.204303862765729 -21.516338837974317
ltibia -2.025832424464042
lfoot -28.36352428797893 5.191499242587742
ltoes -37.04084417776532
rfemur 16.250925816779638 2.5773369233336814 33.080476098918155
rtibia 29.275114806997095
rfoot 39.91409711709199 -7.655300490692823
rtoes -5.072532407257938
lowerback 1.0 2.072059611991893 5.532487737980195
upperback -0.8663578923355247 4.108246666314722 -0.12600254884636963
thorax -4.126298967040782 1.1616141399663011 -1.4273791344946494
lowerneck -19.947271540306204 -6.634353662385578 -1.798999077931933
upperneck 15.67919261251791 -8.916742394639673 2.0327386295377323
head 8.140782146690883 -3.990933356923401 -0.02664143097402749
lclavicle -1.987614746385437e-14 1.905376869495485e-15
lhumerus -64.18438642755129 -9.400256367696123 97.37927435601627
lradius 117.4244751120438
lwrist 27.385991601661857
lhand -34.83422062491375 -3.2759807133153807
lfingers nan
lthumb -8.105102779959799 26.56233937689567
rclavicle -2.2350936710122385e-14 -2.610666194440484e-15
rhumerus -47.7685268601062 16.176436932374642 -105.3296021191717
rradius 139.335663498476
rwrist -13.103135687380226
rhand -18.262670521371174 1.0
rfingers nan
rthumb 7.7434073063097015 8.447938962839102
34
root -0.617108093951525 17.5853373826813 5.137651392058822 3.3052247296065143 10.74475385229163 -0.4501701217795666
lfemur -32.00470951644865 -9.39592163546532 -21.87317745368028
ltibia -6.053534965131959
lfoot -28.77346614581464 5.649126017662299
ltoes -37.78547069904703
rfemur 16.313269801903683 2.189445391424738 32.30327009128763
rtibia 26.681869428912755
rfoot 43.41285913555547 -6.072672823774069
rtoes -3.743536689478414
lowerback 1.0 1.951009047050583 5.279461813428816
upperback -0.5577717735801274 4.01773773099674 -0.24298768082150968
thorax -3.5115370638260694 1.0355117181404907 -0.9114980666479818
lowerneck -19.63372154392377 -6.579979386383237 -1.829559547266551
upperneck 15.666296431036693 -8.749841662664975 1.9398223135665855
head 8.061652885402573 -3.9455751850082232 -0.0390383643995138
lclavicle 2.6162930535180484e-14 1.4753377267813513e-15
lhumerus -64.03967848252297 -8.727977033746845 96.95005108166839
lradius 117.62356487573298
lwrist 29.270164656145226
lhand -33.80468337797405 -2.2758177503332995
lfingers nan
lthumb -7.094570970917797 27.610626957443685
rclavicle 2.3388849312269063e-14 -3.2196602498071455e-15
rhumerus -47.94162270804864 16.16597895921118 -105.07141509130025
rradius 139.33005153592603
rwrist -11.94500732536838
rhand -17.21143377001787 1.0
rfingers nan
rthumb 8.744341092426737 11.113494109779701
35
root -0.5957731947392189 17.613993315811822 5.793175749915617 3.419052176984465 10.094435519434406 -0.15646128507999002
lfemur -30.99504438369555 -9.405280185225742 -22.31032444945101
ltibia -10.2266483891107
lfoot -28.654066438337782 5.644216592178962
ltoes -37.04839401441189
rfemur 16.62346090772549 2.077235862250738 31.405565706443646
rtibia 24.16466080950125
rfoot 46.52085114035267 -4.848204477590558
rtoes -4.1113424147781235
lowerback 1.0 1.8781583523207968 5.0001903808471635
upperback -0.10406798106926307 3.956405610209926 -0.42830806070315086
thorax -3.2464322038068394 0.9389617708909743 -0.4576098707225772
lowerneck -20.418980524386953 -6.552215300306835 -1.7914872440209983
upperneck 15.672464178922453 -8.716247141068271 1.8805926859455597
head 8.186728008753475 -3.940117541017348 -0.07848452891829927
lclavicle -3.592358310127598e-14 -2.6054143631642027e-14
lhumerus -63.85349262998963 -8.021452878875364 96.39809370659044
lradius 117.69867549962679
lwrist 31.24040629402089
lhand -33.063292365902996 -2.220996871797589
lfingers nan
lthumb -6.374162024974746 27.68434489500785
rclavicle -3.8830021375847243e-14 -3.0039568330256876e-14
rhumerus -47.951676036302175 16.290691983630722 -104.94932809349666
rradius 139.0623869584674
rwrist -8.51306277040824
rhand -13.208610510746235 1.0
rfingers nan
rthumb 12.73375738618783 23.37492612313315
